<?xml version="1.0" standalone="no"?>
<!DOCTYPE svg PUBLIC "-//W3C//DTD SVG 20010904//EN"
 "http://www.w3.org/TR/2001/REC-SVG-20010904/DTD/svg10.dtd">
<svg version="1.0" xmlns="http://www.w3.org/2000/svg"
 width="397.000000pt" height="404.000000pt" viewBox="0 0 397.000000 404.000000"
 preserveAspectRatio="xMidYMid meet">

<g transform="translate(0.000000,404.000000) scale(0.100000,-0.100000)"
fill="#000000" stroke="none">
<path d="M1740 3985 c-479 -67 -885 -284 -1191 -637 -30 -34 -43 -55 -33 -54
8 1 20 9 25 17 8 11 9 10 7 -5 -3 -17 8 -22 69 -35 39 -9 75 -19 79 -23 4 -5
24 -8 44 -8 20 0 41 -5 47 -11 12 -12 137 -41 171 -40 12 0 22 -5 22 -13 0 -8
14 -16 33 -19 52 -8 151 -37 157 -47 3 -5 12 -8 20 -8 25 2 80 -14 80 -23 0
-5 4 -9 10 -9 15 0 281 -114 330 -142 8 -4 22 -11 30 -14 35 -14 66 -27 82
-35 10 -5 25 -9 33 -9 9 0 13 -4 10 -10 -3 -5 14 -15 39 -21 25 -6 51 -17 57
-25 6 -8 24 -14 40 -14 16 0 29 -5 29 -11 0 -5 15 -15 33 -22 l32 -12 -45 -6
c-39 -5 341 -13 500 -10 90 2 304 21 470 41 297 37 438 50 571 52 l134 1 -110
7 c-126 9 -127 9 -100 20 18 8 17 9 -6 9 -15 1 -29 8 -33 16 -3 9 -18 15 -36
15 -16 0 -30 5 -30 11 0 15 -31 38 -51 39 -9 0 -33 15 -52 34 -21 20 -39 30
-43 24 -3 -5 -11 0 -18 13 -6 12 -17 24 -25 27 -8 3 -11 0 -7 -7 4 -6 2 -11
-3 -11 -6 0 -11 4 -11 9 0 19 -77 61 -112 61 -36 0 -51 15 -52 50 -1 8 -12 16
-26 18 -39 5 -78 22 -84 38 -3 8 -13 14 -22 14 -9 0 -27 11 -40 25 -13 14 -32
25 -43 25 -11 0 -34 13 -52 29 -18 17 -37 29 -43 28 -6 -1 -10 4 -9 11 2 6 -6
12 -16 12 -29 0 -51 11 -51 24 0 6 -28 25 -61 41 -34 16 -56 31 -49 33 8 3 1
10 -16 18 -16 7 -22 13 -14 13 9 1 4 9 -14 20 -16 11 -35 17 -42 14 -8 -3 -14
-1 -14 4 0 17 -68 83 -86 83 -11 1 -30 14 -44 30 -13 17 -33 30 -43 30 -13 0
-17 5 -13 15 4 11 -3 19 -20 25 -21 8 -23 12 -12 23 16 15 68 21 68 7 0 -17
25 -11 37 9 11 17 17 18 48 9 19 -6 35 -15 35 -20 0 -5 9 -4 20 2 14 8 26 8
41 -1 12 -6 46 -12 78 -14 97 -5 176 -18 183 -29 5 -7 45 -10 118 -8 77 2 110
0 110 -8 0 -6 4 -8 10 -5 5 3 18 1 27 -4 16 -9 16 -10 -4 -11 -13 0 -23 -5
-23 -11 0 -7 7 -8 18 -4 74 31 74 31 89 8 9 -14 26 -23 40 -23 13 0 22 -4 19
-9 -6 -9 42 -6 51 3 4 3 13 0 22 -7 14 -10 14 -10 4 4 -7 9 -9 20 -5 24 4 5
-4 1 -17 -8 -17 -12 -29 -13 -42 -6 -18 9 -21 40 -6 55 3 4 4 -6 1 -22 -5 -28
-5 -28 16 -9 21 19 21 19 14 -1 -6 -16 -5 -17 7 -6 11 11 9 17 -16 37 -17 13
-34 24 -39 25 -5 0 -17 7 -27 16 -9 8 -23 16 -31 18 -7 1 -28 12 -46 24 -78
56 -285 140 -450 183 -221 57 -511 74 -732 44z"/>
<path d="M3160 3591 c0 -5 11 -16 25 -25 14 -9 25 -15 25 -13 0 2 -11 13 -25
25 -14 12 -25 18 -25 13z"/>
<path d="M337 3058 c-99 -159 -182 -369 -129 -326 10 8 13 9 9 1 -5 -7 2 -14
15 -18 38 -11 181 -65 211 -80 19 -10 27 -11 27 -3 0 7 5 5 13 -3 6 -9 32 -21
57 -28 25 -7 67 -24 94 -37 35 -18 52 -22 59 -15 8 8 3 11 -18 11 -22 0 -26 3
-18 11 15 15 -14 62 -33 55 -8 -3 -14 -1 -14 4 0 5 -9 12 -20 15 -11 3 -20 13
-20 21 0 8 -9 14 -20 14 -11 0 -20 6 -20 14 0 8 -4 18 -10 21 -6 3 -7 -1 -4
-10 4 -10 2 -15 -7 -13 -20 4 -39 24 -39 41 0 8 -17 19 -42 25 -91 23 324 6
517 -21 156 -22 410 -45 348 -31 -12 3 -20 11 -17 17 3 8 -5 13 -17 14 -12 1
-29 9 -38 17 -10 9 -32 19 -49 22 -18 4 -32 10 -32 15 0 5 -11 9 -23 9 -13 0
-32 9 -41 19 -10 11 -29 22 -43 26 -14 3 -35 17 -45 31 -11 13 -30 24 -43 24
-12 0 -25 7 -29 15 -3 9 -18 15 -36 15 -16 0 -30 5 -30 10 0 6 -9 10 -20 10
-11 0 -28 4 -38 9 -40 21 -91 41 -106 41 -9 0 -16 7 -16 15 0 8 -8 15 -17 15
-10 0 -33 9 -51 20 -18 11 -41 20 -52 20 -11 0 -30 5 -43 12 -47 24 -57 28
-72 28 -9 0 -13 5 -10 10 3 6 2 10 -4 10 -5 0 -13 -5 -17 -11 -5 -8 -9 -8 -14
1 -5 8 -24 -15 -53 -62z"/>
<path d="M2968 3113 c7 -3 16 -2 19 1 4 3 -2 6 -13 5 -11 0 -14 -3 -6 -6z"/>
<path d="M1398 2713 c7 -3 16 -2 19 1 4 3 -2 6 -13 5 -11 0 -14 -3 -6 -6z"/>
<path d="M1904 2666 c-80 -18 -194 -73 -304 -147 -133 -89 -182 -153 -215
-280 -23 -88 -16 -270 13 -352 102 -283 407 -460 691 -403 150 31 252 91 396
232 107 106 136 166 143 289 5 115 -14 200 -74 324 -81 166 -217 281 -388 325
-87 23 -192 28 -262 12z m155 -63 c8 -15 13 -16 31 -5 29 18 87 6 96 -20 4
-15 12 -18 29 -14 27 7 57 -2 49 -15 -3 -5 1 -7 8 -4 18 7 35 -6 40 -30 2 -13
11 -20 25 -20 23 0 85 -53 78 -66 -9 -13 7 -39 24 -39 22 0 67 -74 63 -105 -2
-16 4 -27 18 -35 15 -8 20 -18 17 -31 -3 -10 -2 -17 3 -14 13 8 20 -37 8 -58
-8 -16 -7 -23 6 -32 9 -7 16 -22 16 -35 0 -23 -1 -23 -87 -16 -49 3 -158 8
-243 11 l-155 4 75 -14 c44 -8 145 -14 243 -14 158 -1 167 -2 167 -20 0 -11
-5 -23 -11 -27 -6 -4 -8 -20 -5 -39 8 -40 -8 -77 -37 -90 -15 -7 -22 -19 -22
-37 -1 -31 -41 -79 -59 -72 -15 6 -40 -21 -32 -34 3 -6 -1 -16 -10 -23 -14
-11 -23 -6 -68 42 -28 30 -82 89 -121 130 -38 41 -90 90 -115 109 l-45 35 48
-62 c27 -34 100 -107 163 -164 90 -81 112 -105 103 -116 -6 -7 -20 -13 -31
-13 -11 0 -22 -8 -25 -20 -7 -28 -69 -61 -99 -54 -20 5 -26 2 -31 -14 -6 -26
-77 -46 -104 -29 -14 9 -22 8 -37 -6 -10 -9 -34 -17 -52 -17 -18 0 -42 8 -52
17 -15 14 -23 15 -38 5 -24 -15 -78 2 -101 31 -10 13 -23 18 -33 14 -25 -10
-94 28 -92 50 1 12 -7 19 -24 21 -34 5 -80 50 -77 76 1 14 -4 22 -19 24 -29 4
-70 78 -54 97 9 11 6 17 -15 31 -17 11 -25 24 -22 35 3 10 0 20 -7 22 -8 3 -8
12 1 36 9 25 9 34 -3 45 -19 20 -18 85 2 108 13 14 14 21 5 32 -18 22 -3 82
25 101 19 12 22 20 15 34 -8 14 -4 25 17 49 15 17 36 32 47 34 12 2 21 12 23
25 4 27 68 69 99 65 20 -3 27 5 25 29 -1 11 87 48 93 39 4 -7 13 -6 26 0 11 6
17 15 14 20 -3 4 14 15 38 23 31 10 47 11 60 3 14 -9 20 -7 28 7 7 11 22 17
49 17 27 0 42 -6 49 -17z"/>
<path d="M2010 2499 c0 -46 -2 -142 -5 -214 l-5 -130 21 75 c18 69 19 85 9
210 -7 74 -14 137 -16 139 -2 2 -4 -34 -4 -80z"/>
<path d="M2132 2555 c0 -16 2 -22 5 -12 2 9 2 23 0 30 -3 6 -5 -1 -5 -18z"/>
<path d="M1894 2528 c3 -14 15 -77 25 -140 11 -62 29 -140 40 -173 l20 -60 -5
75 c-5 64 -66 304 -82 320 -3 3 -2 -7 2 -22z"/>
<path d="M2116 2465 c-4 -27 -25 -104 -47 -171 -21 -66 -39 -125 -39 -130 1
-5 18 25 39 66 40 77 67 194 59 255 -3 25 -5 22 -12 -20z"/>
<path d="M2235 2478 c-13 -41 -74 -157 -131 -246 l-56 -87 50 49 c28 26 61 69
75 95 28 51 81 200 74 208 -3 2 -8 -6 -12 -19z"/>
<path d="M1778 2470 c44 -113 157 -318 168 -307 9 8 -51 135 -103 220 -62 101
-79 125 -65 87z"/>
<path d="M1630 2446 c59 -77 186 -212 240 -257 36 -30 60 -47 54 -39 -44 62
-98 120 -196 210 -62 58 -106 96 -98 86z"/>
<path d="M2315 2380 c-20 -27 -85 -95 -143 -151 -105 -99 -106 -100 -47 -64
93 58 146 115 214 228 32 53 19 46 -24 -13z"/>
<path d="M1535 2343 c50 -48 365 -229 365 -209 0 2 -26 21 -58 44 -55 39 -328
185 -307 165z"/>
<path d="M2400 2295 c-25 -19 -104 -65 -177 -102 -72 -37 -130 -69 -128 -71 1
-2 38 9 80 23 79 26 196 99 250 155 37 38 31 37 -25 -5z"/>
<path d="M1600 2179 c112 -38 267 -76 276 -66 13 13 -332 110 -380 106 -6 0
41 -18 104 -40z"/>
<path d="M2410 2174 c-52 -13 -141 -33 -197 -46 -57 -12 -103 -25 -103 -28 0
-12 157 11 240 34 77 22 190 66 165 64 -5 -1 -53 -11 -105 -24z"/>
<path d="M1974 2143 c-59 -11 -74 -96 -21 -121 33 -16 70 -9 97 18 49 49 -2
117 -76 103z"/>
<path d="M1490 2091 c-42 -5 -20 -8 97 -13 84 -5 187 -5 230 -1 76 7 77 7 33
14 -53 9 -280 8 -360 0z"/>
<path d="M1770 2045 c-65 -14 -274 -83 -255 -84 25 -2 246 50 310 73 79 29 55
33 -55 11z"/>
<path d="M2154 2025 c62 -26 326 -98 333 -92 2 3 -56 25 -129 50 -180 62 -324
92 -204 42z"/>
<path d="M2070 2036 c0 -12 141 -101 255 -161 72 -37 128 -65 125 -62 -31 33
-380 239 -380 223z"/>
<path d="M1814 2005 c-46 -21 -245 -145 -269 -168 -22 -21 224 108 278 146 79
55 77 61 -9 22z"/>
<path d="M1850 1971 c-30 -27 -102 -100 -160 -162 -107 -117 -105 -117 42 15
88 79 196 196 181 196 -4 0 -33 -22 -63 -49z"/>
<path d="M1887 1945 c-37 -52 -184 -324 -164 -305 38 36 230 370 213 370 -1 0
-23 -29 -49 -65z"/>
<path d="M1927 1927 c-24 -65 -68 -252 -66 -281 0 -6 14 27 30 74 28 78 73
269 66 276 -1 2 -15 -29 -30 -69z"/>
<path d="M2047 1963 c32 -79 165 -303 179 -303 9 0 -111 228 -148 283 -21 31
-41 57 -43 57 -2 0 3 -17 12 -37z"/>
<path d="M1977 1965 c-11 -39 -10 -312 1 -332 11 -19 21 197 13 292 -5 60 -7
66 -14 40z"/>
<path d="M2015 1930 c5 -51 84 -324 92 -316 8 7 -50 253 -73 310 l-24 61 5
-55z"/>
<path d="M2508 1923 c7 -3 16 -2 19 1 4 3 -2 6 -13 5 -11 0 -14 -3 -6 -6z"/>
<path d="M2236 1637 c3 -10 9 -15 12 -12 3 3 0 11 -7 18 -10 9 -11 8 -5 -6z"/>
<path d="M1851 1614 c0 -11 3 -14 6 -6 3 7 2 16 -1 19 -3 4 -6 -2 -5 -13z"/>
<path d="M2675 2640 c-3 -5 1 -10 10 -10 9 0 13 5 10 10 -3 6 -8 10 -10 10 -2
0 -7 -4 -10 -10z"/>
<path d="M2800 2570 c0 -5 5 -10 10 -10 11 0 50 -36 50 -45 -1 -3 3 -13 8 -22
8 -14 11 -13 17 6 4 12 5 24 3 25 -1 1 -19 15 -39 29 -39 29 -49 33 -49 17z"/>
<path d="M2901 2523 c-1 -6 -4 -19 -8 -29 -4 -12 -3 -15 5 -10 7 4 12 3 12 -2
0 -5 17 -18 38 -27 20 -10 44 -24 53 -32 9 -7 20 -13 25 -11 5 1 18 -3 29 -8
31 -17 78 -27 70 -14 -3 5 -13 10 -21 10 -8 0 -14 4 -14 9 0 6 -11 16 -24 23
-13 7 -43 24 -67 37 -23 13 -49 30 -57 37 -7 8 -17 12 -22 9 -5 -3 -11 1 -13
7 -4 9 -6 9 -6 1z"/>
<path d="M3270 2279 c0 -5 5 -7 10 -4 6 3 10 8 10 11 0 2 -4 4 -10 4 -5 0 -10
-5 -10 -11z"/>
<path d="M3335 2240 c3 -5 8 -10 11 -10 2 0 4 5 4 10 0 6 -5 10 -11 10 -5 0
-7 -4 -4 -10z"/>
<path d="M1045 1424 c-58 -8 -257 -16 -477 -20 -208 -4 -378 -8 -378 -9 0 -1
7 -20 16 -41 150 -365 401 -671 724 -884 184 -121 414 -221 624 -270 341 -81
737 -62 1065 51 128 44 374 170 475 243 308 222 549 522 679 844 l26 62 -37 0
c-20 0 -116 -7 -212 -15 -202 -17 -402 -18 -545 -4 -55 5 -372 14 -705 19
-433 6 -645 13 -745 24 -166 19 -372 19 -510 0z"/>
</g>
</svg>
